<?xml version="1.0" encoding="UTF-8"?>
<svg version="1.1" xmlns="http://www.w3.org/2000/svg" width="100" height="100">
<path d="M0 0 C33 0 66 0 100 0 C100 33 100 66 100 100 C67 100 34 100 0 100 C0 67 0 34 0 0 Z " fill="#FEFDFD" transform="translate(0,0)"/>
<path d="M0 0 C7.42449709 4.54764278 13.22900551 11.14031629 15.62109375 19.60546875 C17.29642045 30.35114035 15.9409916 39.5469485 9.62109375 48.60546875 C5.02657273 54.78864256 -0.94765595 58.60440847 -8.37890625 60.60546875 C-18.03948922 61.99162426 -27.3393561 61.62046065 -35.37890625 55.60546875 C-42.26593213 50.2081896 -47.40752344 43.46564974 -48.66113281 34.61230469 C-49.62541699 23.99548748 -48.40881235 15.89563957 -41.6171875 7.40234375 C-30.46401924 -4.8141083 -14.77479633 -7.15685521 0 0 Z " fill="#FDF8F8" transform="translate(66.37890625,21.39453125)"/>
<path d="M0 0 C7.42449709 4.54764278 13.22900551 11.14031629 15.62109375 19.60546875 C17.29642045 30.35114035 15.9409916 39.5469485 9.62109375 48.60546875 C5.02657273 54.78864256 -0.94765595 58.60440847 -8.37890625 60.60546875 C-18.03948922 61.99162426 -27.3393561 61.62046065 -35.37890625 55.60546875 C-42.26593213 50.2081896 -47.40752344 43.46564974 -48.66113281 34.61230469 C-49.62541699 23.99548748 -48.40881235 15.89563957 -41.6171875 7.40234375 C-30.46401924 -4.8141083 -14.77479633 -7.15685521 0 0 Z M-39.37890625 13.60546875 C-43.85836435 20.62372952 -44.41185025 27.62758009 -43.01171875 35.73046875 C-40.90796763 42.87745887 -35.19593018 48.96603731 -29.17578125 53.12890625 C-22.78126907 56.37216602 -15.85852263 56.8284981 -8.9609375 54.9453125 C-1.46391269 51.9645677 4.7301854 47.23998312 8.05859375 39.79296875 C8.59245186 38.40206488 9.1158501 37.00702036 9.62109375 35.60546875 C10.11609375 34.61546875 10.11609375 34.61546875 10.62109375 33.60546875 C11.60160088 25.53729579 10.35213775 19.25093521 5.62109375 12.60546875 C-0.82382919 5.40087809 -7.10729109 1.64741342 -16.75390625 1.10546875 C-26.04801523 1.40154147 -33.81818725 6.28950954 -39.37890625 13.60546875 Z " fill="#F03843" transform="translate(66.37890625,21.39453125)"/>
<path d="M0 0 C3.72754847 0.10354301 4.9552258 0.95730832 7.6875 3.5625 C12.72069531 10.23661164 12.49229913 18.98367043 13 27 C19.50726475 18.68516171 22.55034225 10.56695716 23 0 C25.55740874 2.14475912 26.86486178 3.39363305 27.6015625 6.69921875 C27.68592661 17.45564324 23.51532315 22.50659729 16.3125 30.0625 C14.05078125 32.34765625 14.05078125 32.34765625 12 34 C11.01 34 10.02 34 9 34 C8.98582031 33.01 8.97164062 32.02 8.95703125 31 C8.6900035 22.06475355 7.55139056 16.14138563 1.5234375 9.33203125 C-2.01762592 5.32607961 -2.01762592 5.32607961 -1.875 2.6875 C-1 1 -1 1 0 0 Z " fill="#EE4550" transform="translate(37,33)"/>
<path d="M0 0 C3.00642946 0.24376455 4.76300685 0.83542142 7.25 2.5625 C9.73398489 6.0223361 9.7184615 8.77692253 10 13 C9.34 12.67 8.68 12.34 8 12 C8 11.34 8 10.68 8 10 C7.34 10 6.68 10 6 10 C7.86566488 13.62793998 7.86566488 13.62793998 11 16 C11 19.96 11 23.92 11 28 C10.67 28 10.34 28 10 28 C9.91363281 27.443125 9.82726563 26.88625 9.73828125 26.3125 C8.3454654 18.7478488 5.23461686 13.4289335 0.125 7.75 C-2 5 -2 5 -1.875 2.6875 C-1 1 -1 1 0 0 Z " fill="#F03741" transform="translate(37,33)"/>
<path d="M0 0 C2.64005083 2.18956597 3.88265302 3.38047699 4.53125 6.8046875 C4.46661379 13.15519529 4.29210822 17.17137825 0 22 C-1.32 21.67 -2.64 21.34 -4 21 C-3.5912359 18.07052395 -3.20616501 15.46387127 -2 12.75 C-0.49425635 8.60920497 -0.32264082 4.37263222 0 0 Z " fill="#EF3843" transform="translate(60,33)"/>
<path d="M0 0 C0.33 0 0.66 0 1 0 C1.69801773 10.90975866 1.70717065 19.71440366 -5 29 C-5.99 29.66 -6.98 30.32 -8 31 C-10 30.33333333 -12 29.66666667 -14 29 C-13.60167969 28.5875 -13.20335938 28.175 -12.79296875 27.75 C-8.7997417 23.39728536 -6.77780001 19.62970004 -5 14 C-4.855625 14.61875 -4.71125 15.2375 -4.5625 15.875 C-4.06847775 18.03258322 -4.06847775 18.03258322 -3 20 C-0.98487773 15.78134972 -0.58645932 11.79114568 -0.375 7.1875 C-0.33632812 6.49462891 -0.29765625 5.80175781 -0.2578125 5.08789062 C-0.16426432 3.39232985 -0.08107636 1.69620288 0 0 Z " fill="#ED434D" transform="translate(81,41)"/>
<path d="M0 0 C0.33 0.66 0.66 1.32 1 2 C0.06421005 4.35981813 -0.93347808 6.69631264 -2 9 C-1.34 9 -0.68 9 0 9 C-0.66 11.97 -1.32 14.94 -2 18 C-2.33 16.68 -2.66 15.36 -3 14 C-3.33 13.67 -3.66 13.34 -4 13 C-5.10514766 16.31544299 -5.32107631 19.20410111 -5.5625 22.6875 C-5.64628906 23.86699219 -5.73007812 25.04648437 -5.81640625 26.26171875 C-5.87699219 27.16535156 -5.93757813 28.06898437 -6 29 C-6.33 29 -6.66 29 -7 29 C-7.9773789 10.27776412 -7.9773789 10.27776412 -2 2 C-1.34 1.34 -0.68 0.68 0 0 Z " fill="#ED424C" transform="translate(25,29)"/>
<path d="M0 0 C1.14077657 3.42232972 1.09815117 6.08673217 1.0625 9.6875 C1.05347656 10.86699219 1.04445313 12.04648437 1.03515625 13.26171875 C1.02355469 14.16535156 1.01195312 15.06898437 1 16 C0.34 16 -0.32 16 -1 16 C-1 17.65 -1 19.3 -1 21 C-1.66 20.67 -2.32 20.34 -3 20 C-3.08139142 17.60347472 -3.14067009 15.20974564 -3.1875 12.8125 C-3.22520508 11.80219727 -3.22520508 11.80219727 -3.26367188 10.77148438 C-3.32923478 6.29135252 -2.66743649 3.60559001 0 0 Z " fill="#F52D39" transform="translate(22,40)"/>
<path d="M0 0 C0.3690205 12.66970387 0.3690205 12.66970387 -2 18 C-2.99 18 -3.98 18 -5 18 C-4.71949194 15.18596699 -4.42618696 12.37432747 -4.125 9.5625 C-4.04636719 8.76005859 -3.96773438 7.95761719 -3.88671875 7.13085938 C-3.66154237 5.07829006 -3.33777413 3.03706991 -3 1 C-1 0 -1 0 0 0 Z " fill="#F72C37" transform="translate(81,44)"/>
<path d="M0 0 C0 4.97693245 -1.51895161 9.37970967 -5 13 C-5.99 13 -6.98 13 -8 13 C-7.34206835 11.32986582 -6.67276716 9.6642135 -6 8 C-5.77054688 7.38769531 -5.54109375 6.77539062 -5.3046875 6.14453125 C-4.61927936 4.39493678 -3.81418609 2.69350706 -3 1 C-2.01 0.67 -1.02 0.34 0 0 Z " fill="#F3313B" transform="translate(30,26)"/>
<path d="M0 0 C0.66 0.33 1.32 0.66 2 1 C1.690625 1.5775 1.38125 2.155 1.0625 2.75 C-0.07500447 4.90791183 -0.07500447 4.90791183 -0.375 7.0625 C-1.22572995 9.69976283 -2.72213316 10.53040849 -5 12 C-4.67 10.02 -4.34 8.04 -4 6 C-4.66 5.67 -5.32 5.34 -6 5 C-4.02 3.35 -2.04 1.7 0 0 Z " fill="#EE404C" transform="translate(34,21)"/>
<path d="M0 0 C3.96 0 7.92 0 12 0 C11.67 0.99 11.34 1.98 11 3 C4.6 4.23076923 4.6 4.23076923 1.5625 3.0625 C1.046875 2.711875 0.53125 2.36125 0 2 C0 1.34 0 0.68 0 0 Z " fill="#F62D38" transform="translate(45,78)"/>
<path d="M0 0 C3.20762554 4.81143831 3.119958 9.12415752 3.0625 14.8125 C3.05347656 15.97394531 3.04445313 17.13539062 3.03515625 18.33203125 C3.02355469 19.21246094 3.01195312 20.09289062 3 21 C2.67 21 2.34 21 2 21 C2 17.04 2 13.08 2 9 C0.68 8.34 -0.64 7.68 -2 7 C-2.75 4.875 -2.75 4.875 -3 3 C-2.34 3 -1.68 3 -1 3 C-0.67 3.33 -0.34 3.66 0 4 C0 2.68 0 1.36 0 0 Z " fill="#F04D57" transform="translate(46,40)"/>
<path d="M0 0 C-1.45271122 3.75283733 -1.45271122 3.75283733 -3.9375 4.875 C-6 5 -6 5 -9 3 C-8.01 2.67 -7.02 2.34 -6 2 C-6 1.34 -6 0.68 -6 0 C-3 -1 -3 -1 0 0 Z M-10 4 C-9.67 4.66 -9.34 5.32 -9 6 C-9.66 5.67 -10.32 5.34 -11 5 C-10.67 4.67 -10.34 4.34 -10 4 Z " fill="#F4303B" transform="translate(73,71)"/>
<path d="M0 0 C1.65 1.65 3.3 3.3 5 5 C4.34 5 3.68 5 3 5 C3.33 6.65 3.66 8.3 4 10 C2.68 9.34 1.36 8.68 0 8 C0 5.36 0 2.72 0 0 Z " fill="#EE4049" transform="translate(30,68)"/>
<path d="M0 0 C0.33 0.99 0.66 1.98 1 3 C0.34 3 -0.32 3 -1 3 C-1.33 4.32 -1.66 5.64 -2 7 C-4 6.33333333 -6 5.66666667 -8 5 C-4.25 2 -4.25 2 -2 2 C-1.34 1.34 -0.68 0.68 0 0 Z " fill="#F03A46" transform="translate(75,65)"/>
<path d="M0 0 C0.99 0 1.98 0 3 0 C4.125 3.75 4.125 3.75 3 6 C3.66 6.33 4.32 6.66 5 7 C1.125 6.125 1.125 6.125 0 5 C-0.04063832 3.33382885 -0.042721 1.66611905 0 0 Z " fill="#F32F3B" transform="translate(27,68)"/>
<path d="M0 0 C1.32 0.33 2.64 0.66 4 1 C3.360625 1.2475 2.72125 1.495 2.0625 1.75 C-0.18741541 2.81562433 -0.18741541 2.81562433 -0.75 5.125 C-0.8325 5.74375 -0.915 6.3625 -1 7 C-1.66 6.01 -2.32 5.02 -3 4 C-2.01 2.68 -1.02 1.36 0 0 Z " fill="#F32D37" transform="translate(36,21)"/>
</svg>
